PathFileType	4	(X/Y/Z)
DataRate	CameraRate	NumFrames	NumMarkers	Units	OrigDataRate	OrigDataStartFrame	OrigNumFrames	
  120.0	  120.0	    5	     56	     mm	  120.0	      175	    465
Frame#	Time	LASI			RASI			LPSI			RPSI			RTH1			RTH2			RTH3			RLFC			RMFC			LTH1			LTH2			LTH3			LLFC			LMFC			RTB1			RTB2			RTB3			RLMAL			RMMAL			LTB1			LTB2			LTB3			LMMAL			LLMAL			RCAL			RTOE			RMT5			LCAL			LTOE			LMT5			LACR			RACR			CLAV			C7			LASH			LPSH			RASH			RPSH			RUA1			RUA2			RUA3			RLEL			RMEL			LUA1			LUA2			LUA3			LLEL			LMEL			RFAsuperior			RFAradius			RFAulna			LFAsuperior			LFAradius			LFAulna			RHJC			LHJC			
		X1	Y1	Z1	X2	Y2	Z2	X3	Y3	Z3	X4	Y4	Z4	X5	Y5	Z5	X6	Y6	Z6	X7	Y7	Z7	X8	Y8	Z8	X9	Y9	Z9	X10	Y10	Z10	X11	Y11	Z11	X12	Y12	Z12	X13	Y13	Z13	X14	Y14	Z14	X15	Y15	Z15	X16	Y16	Z16	X17	Y17	Z17	X18	Y18	Z18	X19	Y19	Z19	X20	Y20	Z20	X21	Y21	Z21	X22	Y22	Z22	X23	Y23	Z23	X24	Y24	Z24	X25	Y25	Z25	X26	Y26	Z26	X27	Y27	Z27	X28	Y28	Z28	X29	Y29	Z29	X30	Y30	Z30	X31	Y31	Z31	X32	Y32	Z32	X33	Y33	Z33	X34	Y34	Z34	X35	Y35	Z35	X36	Y36	Z36	X37	Y37	Z37	X38	Y38	Z38	X39	Y39	Z39	X40	Y40	Z40	X41	Y41	Z41	X42	Y42	Z42	X43	Y43	Z43	X44	Y44	Z44	X45	Y45	Z45	X46	Y46	Z46	X47	Y47	Z47	X48	Y48	Z48	X49	Y49	Z49	X50	Y50	Z50	X51	Y51	Z51	X52	Y52	Z52	X53	Y53	Z53	X54	Y54	Z54	X55	Y55	Z55	X56	Y56	Z56	

179	1.49167	621.49179	1111.18190	-639.86507	657.98203	1106.91738	-387.88637	465.48104	1142.48852	-533.39320	483.61849	1143.28243	-436.32447	630.21559	877.29802	-328.00537	644.15865	752.99136	-358.59888	558.05829	637.32925	-329.73442	549.08096	556.31399	-330.30575	541.69063	560.66285	-442.44365	544.41499	870.07667	-682.33130	590.69893	763.65589	-659.08576	528.28463	658.96326	-651.74417	516.38533	574.61295	-644.21352	528.57378	569.46215	-530.09817	563.05723	430.58666	-378.22566	504.66658	352.65310	-307.16094	535.42183	234.17890	-363.20170	486.65641	139.47262	-310.74585	499.51101	139.87459	-392.65305	535.36501	432.87176	-589.54031	478.17773	327.81310	-646.92249	515.65509	217.90552	-604.07050	480.11411	141.68797	-565.33992	465.24021	140.26099	-641.60469	417.68921	105.70866	-347.60685	630.82321	57.89167	-392.83334	624.48496	71.12345	-300.55116	404.39801	104.70612	-598.35896	626.83834	53.63686	-576.19357	603.34114	70.50361	-667.52494	516.76963	1558.45663	-664.19109	556.03218	1558.86336	-341.45661	628.49968	1510.22056	-492.48792	507.58737	1589.12538	-497.61907	575.34579	1506.06747	-635.47293	464.53779	1526.23143	-641.44737	615.62739	1515.89160	-367.54898	501.78709	1522.30018	-342.85384	575.32039	1481.01577	-266.67526	527.00064	1429.85585	-255.82222	578.58481	1384.66375	-228.33430	530.59353	1289.95365	-144.80297	526.32173	1241.63168	-202.94046	490.18489	1466.29449	-745.33907	454.94344	1388.31479	-741.05648	510.64228	1396.84953	-790.10106	464.54811	1296.09687	-870.88529	466.13637	1254.22220	-811.20201	617.20960	1312.72171	-147.17546	777.25120	1309.82093	-215.07551	783.72132	1291.96627	-154.67788	550.99809	1323.56437	-874.43979	714.31366	1329.15181	-819.21214	711.83219	1319.02662	-878.57350	603.32306	998.97670	-401.25145	568.30794	1005.81665	-614.86278	
180	1.50000	621.54951	1111.18424	-639.87187	657.89903	1106.74659	-387.94390	465.49138	1142.47878	-533.43716	483.89497	1143.31344	-436.01876	630.29497	877.29182	-328.03046	644.21519	752.99116	-358.62646	558.11853	637.40379	-329.67307	549.11516	556.32408	-330.31124	541.67790	560.66241	-442.47555	544.46835	870.07387	-682.33579	590.76561	763.65948	-659.11622	528.34119	658.97218	-651.76585	516.43876	574.60107	-644.20897	528.65131	569.46425	-530.12025	563.08392	430.59022	-378.21617	504.67717	352.65093	-307.16888	535.43702	234.19047	-363.20143	486.65698	139.48084	-310.74304	499.51863	139.87840	-392.65227	535.40031	432.86913	-589.53837	478.21631	327.82023	-646.94763	515.67572	217.91460	-604.07152	480.08970	141.67783	-565.30396	465.27817	140.26314	-641.61807	417.69074	105.72016	-347.60783	630.83062	57.88584	-392.84535	624.49499	71.12920	-300.53934	404.40211	104.70603	-598.34453	626.85502	53.64394	-576.17812	603.34968	70.50257	-667.51794	516.86679	1558.46438	-664.21102	556.09260	1558.86093	-341.47401	628.57077	1510.22492	-492.50182	507.65635	1589.12660	-497.62104	575.44467	1506.06635	-635.52434	464.61706	1526.26136	-641.43543	615.70690	1515.89725	-367.54750	501.86155	1522.29786	-342.86000	575.39842	1481.00670	-266.68888	527.07042	1429.84995	-255.83533	578.64733	1384.62989	-228.44147	530.68919	1289.95893	-144.79348	526.40721	1241.63912	-202.93159	490.27556	1466.30489	-745.34959	455.05960	1388.33918	-741.07225	510.73689	1396.86704	-790.13144	464.65758	1296.11597	-870.92550	466.24987	1254.23287	-811.23085	617.30791	1312.72058	-147.19128	777.31952	1309.83030	-215.10539	783.80264	1291.97970	-154.70518	551.12163	1323.59692	-874.51433	714.39821	1329.16725	-819.21437	711.91273	1319.02986	-878.51931	603.35379	998.82426	-401.35504	568.14987	1005.87758	-614.91981	
181	1.50833	621.61672	1111.17654	-639.92710	657.75884	1106.54759	-388.05127	465.51668	1142.49679	-533.44031	484.35159	1143.36669	-435.48848	630.38278	877.28045	-328.03188	644.27436	752.98754	-358.61361	558.18483	637.48869	-329.57928	549.14590	556.33017	-330.30648	541.68149	560.64964	-442.50858	544.51256	870.07175	-682.33488	590.80610	763.66614	-659.11949	528.37484	658.98059	-651.77616	516.45627	574.57422	-644.17636	528.71813	569.46589	-530.14292	563.09860	430.59353	-378.20252	504.68916	352.64536	-307.16045	535.44114	234.19079	-363.19070	486.65915	139.48761	-310.73766	499.51839	139.88072	-392.64494	535.42371	432.86951	-589.52946	478.23706	327.83733	-646.97257	515.68746	217.91533	-604.05696	480.06489	141.67065	-565.26212	465.28579	140.27153	-641.61988	417.69758	105.72248	-347.60026	630.82767	57.87497	-392.83836	624.49792	71.13232	-300.50532	404.40301	104.70679	-598.32924	626.85484	53.64688	-576.15317	603.34767	70.49024	-667.49339	516.94556	1558.47710	-664.21742	556.15469	1558.84874	-341.47446	628.63475	1510.21966	-492.50394	507.71187	1589.12343	-497.61680	575.53888	1506.07008	-635.54898	464.66612	1526.30696	-641.38292	615.78657	1515.89382	-367.53612	501.93392	1522.29461	-342.83979	575.47630	1480.98986	-266.69399	527.13987	1429.83790	-255.83802	578.72153	1384.59961	-228.48291	530.78910	1289.95900	-144.78957	526.50460	1241.63781	-202.92366	490.33669	1466.30508	-745.39557	455.12922	1388.41427	-741.03787	510.80424	1396.89239	-790.13854	464.74306	1296.13540	-870.94172	466.36609	1254.22592	-811.25733	617.39149	1312.72226	-147.19759	777.36716	1309.84422	-215.12040	783.87499	1291.98968	-154.71426	551.21758	1323.63135	-874.56462	714.47838	1329.15735	-819.21758	711.97423	1319.04497	-878.44223	603.46588	998.63425	-401.50912	567.83834	1005.97918	-614.97558	
182	1.51667	621.68816	1111.16468	-640.00067	657.64504	1106.39861	-388.16874	465.60659	1142.53488	-533.39822	484.86780	1143.42263	-434.93051	630.46589	877.27130	-328.03709	644.33254	752.98715	-358.61004	558.23315	637.52131	-329.53662	549.17263	556.33402	-330.30739	541.73235	560.62226	-442.52711	544.54235	870.07184	-682.33021	590.82067	763.67215	-659.10087	528.38345	658.98555	-651.77242	516.44259	574.54833	-644.13426	528.75986	569.46780	-530.16151	563.10411	430.60003	-378.19956	504.69995	352.64256	-307.15542	535.43828	234.18625	-363.18843	486.66316	139.49234	-310.73846	499.51277	139.88375	-392.63716	535.43757	432.87415	-589.52026	478.23938	327.85574	-646.98909	515.68940	217.91491	-604.04839	480.05810	141.67504	-565.23918	465.25483	140.28527	-641.60780	417.70200	105.72020	-347.59147	630.81311	57.87042	-392.82303	624.49077	71.13349	-300.47765	404.39466	104.70842	-598.31371	626.83335	53.64927	-576.14156	603.33196	70.47862	-667.47290	516.99991	1558.49317	-664.21089	556.21675	1558.83977	-341.47291	628.69087	1510.21577	-492.51175	507.75588	1589.13059	-497.62036	575.61817	1506.08051	-635.54020	464.69999	1526.35018	-641.33299	615.85931	1515.88874	-367.54496	501.99629	1522.29489	-342.82562	575.55391	1480.97719	-266.69862	527.20273	1429.82305	-255.84640	578.79868	1384.58092	-228.48983	530.88420	1289.95839	-144.80103	526.60736	1241.62524	-202.92481	490.37544	1466.30616	-745.45734	455.14925	1388.50229	-740.99118	510.85085	1396.92205	-790.12536	464.80114	1296.15555	-870.93800	466.48517	1254.20718	-811.28807	617.45946	1312.73484	-147.20362	777.40262	1309.86080	-215.13016	783.93379	1292.00336	-154.72010	551.27660	1323.65904	-874.56741	714.55086	1329.14468	-819.22778	712.02297	1319.06876	-878.37555	603.65304	998.48105	-401.65262	567.52121	1006.08586	-615.00290	
183	1.52500	621.75685	1111.15696	-640.06007	657.60801	1106.34269	-388.26576	465.77181	1142.56052	-533.34461	485.25855	1143.45437	-434.60967	630.53657	877.27146	-328.06706	644.38646	752.99142	-358.66131	558.25595	637.49507	-329.57142	549.19697	556.33767	-330.32514	541.81619	560.58812	-442.52989	544.55023	870.07910	-682.32199	590.81290	763.67696	-659.07345	528.37087	658.98905	-651.75894	516.41041	574.53897	-644.10108	528.78184	569.46993	-530.17637	563.10258	430.61244	-378.21668	504.70926	352.64570	-307.17056	535.43163	234.18529	-363.20956	486.66802	139.49700	-310.74917	499.49520	139.89125	-392.63527	535.44080	432.88301	-589.51712	478.22448	327.86929	-646.99098	515.68262	217.92177	-604.06259	480.07630	141.68975	-565.24533	465.19187	140.30161	-641.58381	417.69969	105.71979	-347.58980	630.78739	57.88194	-392.81168	624.47294	71.13526	-300.47925	404.36727	104.70590	-598.28819	626.79135	53.65440	-576.15668	603.30178	70.48035	-667.47434	517.02940	1558.50973	-664.19626	556.27679	1558.84450	-341.48322	628.73907	1510.22555	-492.53267	507.79221	1589.15590	-497.63435	575.66695	1506.09978	-635.49555	464.72547	1526.37989	-641.30512	615.92181	1515.88922	-367.59094	502.04749	1522.30095	-342.84086	575.62807	1480.97668	-266.71124	527.25830	1429.81054	-255.87166	578.87063	1384.58259	-228.48895	530.96976	1289.96137	-144.83000	526.70713	1241.60661	-202.93789	490.40013	1466.31991	-745.50088	455.13212	1388.57317	-740.95963	510.88506	1396.95312	-790.09868	464.83428	1296.17689	-870.92321	466.60296	1254.18879	-811.32415	617.51315	1312.76336	-147.21539	777.43279	1309.88222	-215.14211	783.98202	1292.02362	-154.73879	551.30541	1323.68172	-874.53096	714.61900	1329.15190	-819.24801	712.05965	1319.09537	-878.33881	603.84659	998.41057	-401.74705	567.35751	1006.15332	-615.01526	
